# xmcd
# 
# Track frame offsets:
#     150
#     15643
#     31762
#     46430
#     62393
#     77750
#     93587
#     108281
#     122804
#     136162
#     149945
# 
# Disc length: 2234
# 
# Revision: 2
# Processed by: cddbd v1.5.2PL0 Copyright (c) Steve Scherf et al.
# Submitted via: fre:ac v1.0.17
# 
DISCID=9108b80b
DTITLE=Kira Isabella - Love Me Like That
DYEAR=2012
DGENRE=Country
TTITLE0=Blame It On Your Truck
TTITLE1=Love Me Like That
TTITLE2=A Little More Work
TTITLE3=A Real Good Radio
TTITLE4=Songs About You
TTITLE5=I Can Love You Better Than That
TTITLE6=Little White Church
TTITLE7=Gonna Be A Hot One
TTITLE8=Dangerously Obvious
TTITLE9=Her Heart
TTITLE10=My Diary
EXTD=
EXTT0=
EXTT1=
EXTT2=
EXTT3=
EXTT4=
EXTT5=
EXTT6=
EXTT7=
EXTT8=
EXTT9=
EXTT10=
PLAYORDER=
